<?xml version="1.0" encoding="UTF-8"?>
<svg width="200" height="200" viewBox="0 0 800 800" xmlns="http://www.w3.org/2000/svg">
  <defs>
    <linearGradient id="flameGradient" x1="0%" y1="0%" x2="100%" y2="100%">
      <stop offset="0%" stop-color="#40E0D0" />
      <stop offset="100%" stop-color="#FFFFFF" />
    </linearGradient>
  </defs>
  
  <!-- Flame path -->
  <g id="flame" transform="translate(200, 100) scale(1.2)">
    <path d="M180 120 C 180 120, 300 10, 250 140 C 250 140, 350 100, 300 180 C 300 180, 400 150, 330 270 C 330 270, 400 230, 330 340 C 330 340, 360 320, 300 380 C 300 380, 330 350, 270 400 C 270 400, 280 370, 240 390 C 240 390, 180 450, 160 350 C 160 350, 130 400, 150 320 C 150 320, 120 360, 140 280 C 140 280, 100 330, 140 220 C 140 220, 80 270, 150 160 C 150 160, 100 170, 180 120" 
          fill="url(#flameGradient)" />
  </g>
  
  <!-- Text "crewd" -->
  <text id="logoText" x="400" y="600" font-family="Arial, sans-serif" font-size="110" text-anchor="middle" fill="#FFFFFF">crewd</text>
</svg>
